<svg width="21" height="20" viewBox="0 0 21 20" fill="none" xmlns="http://www.w3.org/2000/svg">
<path d="M16.9173 0H3.984C3.06133 0.0131837 2.18039 0.386664 1.52939 1.04065C0.878396 1.69464 0.508956 2.57728 0.5 3.5L0.5 16.6C0.529888 17.5065 0.908936 18.3664 1.55794 19C2.20695 19.6336 3.0757 19.9919 3.98267 20H10.948V12.9H8.95733V9.9H10.948V8C10.9457 7.5147 11.0394 7.03374 11.2236 6.58476C11.4078 6.13579 11.6789 5.72764 12.0214 5.3838C12.3639 5.03996 12.771 4.7672 13.2192 4.58121C13.6674 4.39521 14.148 4.29964 14.6333 4.3H17.0213V7.3H14.6333C14.4257 7.31376 14.2301 7.40247 14.083 7.54962C13.9358 7.69677 13.8471 7.89235 13.8333 8.1V10H16.42V13H13.9333V20H17.0173C17.9398 19.9865 18.8204 19.6128 19.4711 18.9589C20.1218 18.3049 20.4911 17.4225 20.5 16.5V3.5C20.4521 2.57308 20.0568 1.6982 19.3929 1.04959C18.729 0.40099 17.8451 0.0262495 16.9173 0Z" fill="black"/>
</svg>
