<svg width="21" height="20" viewBox="0 0 21 20" fill="none" xmlns="http://www.w3.org/2000/svg">
<path d="M6.056 20C4.58289 19.9986 3.17052 19.4128 2.12887 18.3711C1.08723 17.3295 0.501412 15.9171 0.5 14.444L0.5 5.556C0.501764 4.083 1.08769 2.67083 2.12926 1.62926C3.17083 0.587693 4.583 0.00176429 6.056 0L14.944 0C16.417 0.00176429 17.8292 0.587693 18.8707 1.62926C19.9123 2.67083 20.4982 4.083 20.5 5.556V14.4453C20.4982 15.9182 19.9123 17.3302 18.8707 18.3716C17.829 19.413 16.4169 19.9986 14.944 20H6.056ZM4.944 10C4.94374 11.0989 5.26937 12.1733 5.87971 13.0871C6.49005 14.001 7.35768 14.7133 8.37289 15.134C9.38809 15.5548 10.5053 15.665 11.5831 15.4507C12.661 15.2365 13.6511 14.7075 14.4282 13.9305C15.2054 13.1535 15.7347 12.1635 15.9491 11.0857C16.1636 10.008 16.0537 8.89076 15.6332 7.87545C15.2127 6.86015 14.5006 5.99234 13.5869 5.38178C12.6732 4.77122 11.5989 4.44533 10.5 4.44533C9.02723 4.4471 7.61527 5.03284 6.57373 6.07412C5.5322 7.11541 4.94612 8.52723 4.944 10ZM16.056 3.33333C16.0563 3.55289 16.1216 3.76744 16.2437 3.94988C16.3659 4.13233 16.5394 4.27448 16.7422 4.35838C16.9451 4.44228 17.1684 4.46416 17.3837 4.42126C17.599 4.37836 17.7968 4.27261 17.952 4.11736C18.1073 3.96211 18.213 3.76433 18.2559 3.54901C18.2988 3.33368 18.2769 3.11048 18.193 2.90758C18.1091 2.70469 17.967 2.53121 17.7846 2.40907C17.6021 2.28693 17.3876 2.2216 17.168 2.22133C16.8731 2.22133 16.5902 2.33849 16.3817 2.54703C16.1732 2.75557 16.056 3.03841 16.056 3.33333ZM7.16667 10C7.16667 9.34073 7.36216 8.69626 7.72844 8.1481C8.09471 7.59994 8.6153 7.17269 9.22439 6.9204C9.83348 6.66811 10.5037 6.6021 11.1503 6.73072C11.7969 6.85933 12.3908 7.1768 12.857 7.64298C13.3232 8.10915 13.6407 8.7031 13.7693 9.3497C13.8979 9.9963 13.8319 10.6665 13.5796 11.2756C13.3273 11.8847 12.9001 12.4053 12.3519 12.7716C11.8037 13.1378 11.1593 13.3333 10.5 13.3333C9.61594 13.3333 8.7681 12.9821 8.14298 12.357C7.51786 11.7319 7.16667 10.8841 7.16667 10Z" fill="black"/>
</svg>
