<svg width="228" height="37" viewBox="0 0 228 37" fill="none" xmlns="http://www.w3.org/2000/svg">
<path d="M28.5 2H7.5C3.63401 2 0.5 5.13401 0.5 9V30C0.5 33.866 3.63401 37 7.5 37H28.5C32.366 37 35.5 33.866 35.5 30V9C35.5 5.13401 32.366 2 28.5 2Z" fill="#B92770"/>
<path d="M49.99 29V8H60.25C62.89 8 64.87 8.5 66.19 9.5C67.53 10.5 68.2 11.82 68.2 13.46C68.2 14.56 67.93 15.52 67.39 16.34C66.85 17.14 66.11 17.76 65.17 18.2C64.23 18.64 63.15 18.86 61.93 18.86L62.5 17.63C63.82 17.63 64.99 17.85 66.01 18.29C67.03 18.71 67.82 19.34 68.38 20.18C68.96 21.02 69.25 22.05 69.25 23.27C69.25 25.07 68.54 26.48 67.12 27.5C65.7 28.5 63.61 29 60.85 29H49.99ZM54.82 25.34H60.49C61.75 25.34 62.7 25.14 63.34 24.74C64 24.32 64.33 23.66 64.33 22.76C64.33 21.88 64 21.23 63.34 20.81C62.7 20.37 61.75 20.15 60.49 20.15H54.46V16.61H59.65C60.83 16.61 61.73 16.41 62.35 16.01C62.99 15.59 63.31 14.96 63.31 14.12C63.31 13.3 62.99 12.69 62.35 12.29C61.73 11.87 60.83 11.66 59.65 11.66H54.82V25.34ZM77.3995 16.46H87.5095V20.24H77.3995V16.46ZM77.7595 25.1H89.1895V29H72.9295V8H88.7995V11.9H77.7595V25.1ZM99.9564 29.36C98.2764 29.36 96.6664 29.14 95.1264 28.7C93.5864 28.24 92.3464 27.65 91.4064 26.93L93.0564 23.27C93.9564 23.91 95.0164 24.44 96.2364 24.86C97.4764 25.26 98.7264 25.46 99.9864 25.46C100.946 25.46 101.716 25.37 102.296 25.19C102.896 24.99 103.336 24.72 103.616 24.38C103.896 24.04 104.036 23.65 104.036 23.21C104.036 22.65 103.816 22.21 103.376 21.89C102.936 21.55 102.356 21.28 101.636 21.08C100.916 20.86 100.116 20.66 99.2364 20.48C98.3764 20.28 97.5064 20.04 96.6264 19.76C95.7664 19.48 94.9764 19.12 94.2564 18.68C93.5364 18.24 92.9464 17.66 92.4864 16.94C92.0464 16.22 91.8264 15.3 91.8264 14.18C91.8264 12.98 92.1464 11.89 92.7864 10.91C93.4464 9.91 94.4264 9.12 95.7264 8.54C97.0464 7.94 98.6964 7.64 100.676 7.64C101.996 7.64 103.296 7.8 104.576 8.12C105.856 8.42 106.986 8.88 107.966 9.5L106.466 13.19C105.486 12.63 104.506 12.22 103.526 11.96C102.546 11.68 101.586 11.54 100.646 11.54C99.7064 11.54 98.9364 11.65 98.3364 11.87C97.7364 12.09 97.3064 12.38 97.0464 12.74C96.7864 13.08 96.6564 13.48 96.6564 13.94C96.6564 14.48 96.8764 14.92 97.3164 15.26C97.7564 15.58 98.3364 15.84 99.0564 16.04C99.7764 16.24 100.566 16.44 101.426 16.64C102.306 16.84 103.176 17.07 104.036 17.33C104.916 17.59 105.716 17.94 106.436 18.38C107.156 18.82 107.736 19.4 108.176 20.12C108.636 20.84 108.866 21.75 108.866 22.85C108.866 24.03 108.536 25.11 107.876 26.09C107.216 27.07 106.226 27.86 104.906 28.46C103.606 29.06 101.956 29.36 99.9564 29.36ZM116.244 29V11.96H109.524V8H127.824V11.96H121.104V29H116.244ZM145.835 29.36C144.155 29.36 142.545 29.14 141.005 28.7C139.465 28.24 138.225 27.65 137.285 26.93L138.935 23.27C139.835 23.91 140.895 24.44 142.115 24.86C143.355 25.26 144.605 25.46 145.865 25.46C146.825 25.46 147.595 25.37 148.175 25.19C148.775 24.99 149.215 24.72 149.495 24.38C149.775 24.04 149.915 23.65 149.915 23.21C149.915 22.65 149.695 22.21 149.255 21.89C148.815 21.55 148.235 21.28 147.515 21.08C146.795 20.86 145.995 20.66 145.115 20.48C144.255 20.28 143.385 20.04 142.505 19.76C141.645 19.48 140.855 19.12 140.135 18.68C139.415 18.24 138.825 17.66 138.365 16.94C137.925 16.22 137.705 15.3 137.705 14.18C137.705 12.98 138.025 11.89 138.665 10.91C139.325 9.91 140.305 9.12 141.605 8.54C142.925 7.94 144.575 7.64 146.555 7.64C147.875 7.64 149.175 7.8 150.455 8.12C151.735 8.42 152.865 8.88 153.845 9.5L152.345 13.19C151.365 12.63 150.385 12.22 149.405 11.96C148.425 11.68 147.465 11.54 146.525 11.54C145.585 11.54 144.815 11.65 144.215 11.87C143.615 12.09 143.185 12.38 142.925 12.74C142.665 13.08 142.535 13.48 142.535 13.94C142.535 14.48 142.755 14.92 143.195 15.26C143.635 15.58 144.215 15.84 144.935 16.04C145.655 16.24 146.445 16.44 147.305 16.64C148.185 16.84 149.055 17.07 149.915 17.33C150.795 17.59 151.595 17.94 152.315 18.38C153.035 18.82 153.615 19.4 154.055 20.12C154.515 20.84 154.745 21.75 154.745 22.85C154.745 24.03 154.415 25.11 153.755 26.09C153.095 27.07 152.105 27.86 150.785 28.46C149.485 29.06 147.835 29.36 145.835 29.36ZM172.466 8H177.326V29H172.466V8ZM162.926 29H158.066V8H162.926V29ZM172.826 20.39H162.566V16.28H172.826V20.39ZM192.495 29.36C190.835 29.36 189.295 29.09 187.875 28.55C186.475 28.01 185.255 27.25 184.215 26.27C183.195 25.29 182.395 24.14 181.815 22.82C181.255 21.5 180.975 20.06 180.975 18.5C180.975 16.94 181.255 15.5 181.815 14.18C182.395 12.86 183.205 11.71 184.245 10.73C185.285 9.75 186.505 8.99 187.905 8.45C189.305 7.91 190.825 7.64 192.465 7.64C194.125 7.64 195.645 7.91 197.025 8.45C198.425 8.99 199.635 9.75 200.655 10.73C201.695 11.71 202.505 12.86 203.085 14.18C203.665 15.48 203.955 16.92 203.955 18.5C203.955 20.06 203.665 21.51 203.085 22.85C202.505 24.17 201.695 25.32 200.655 26.3C199.635 27.26 198.425 28.01 197.025 28.55C195.645 29.09 194.135 29.36 192.495 29.36ZM192.465 25.22C193.405 25.22 194.265 25.06 195.045 24.74C195.845 24.42 196.545 23.96 197.145 23.36C197.745 22.76 198.205 22.05 198.525 21.23C198.865 20.41 199.035 19.5 199.035 18.5C199.035 17.5 198.865 16.59 198.525 15.77C198.205 14.95 197.745 14.24 197.145 13.64C196.565 13.04 195.875 12.58 195.075 12.26C194.275 11.94 193.405 11.78 192.465 11.78C191.525 11.78 190.655 11.94 189.855 12.26C189.075 12.58 188.385 13.04 187.785 13.64C187.185 14.24 186.715 14.95 186.375 15.77C186.055 16.59 185.895 17.5 185.895 18.5C185.895 19.48 186.055 20.39 186.375 21.23C186.715 22.05 187.175 22.76 187.755 23.36C188.355 23.96 189.055 24.42 189.855 24.74C190.655 25.06 191.525 25.22 192.465 25.22ZM207.607 29V8H216.697C218.577 8 220.197 8.31 221.557 8.93C222.917 9.53 223.967 10.4 224.707 11.54C225.447 12.68 225.817 14.04 225.817 15.62C225.817 17.18 225.447 18.53 224.707 19.67C223.967 20.81 222.917 21.69 221.557 22.31C220.197 22.91 218.577 23.21 216.697 23.21H210.307L212.467 21.02V29H207.607ZM212.467 21.56L210.307 19.25H216.427C217.927 19.25 219.047 18.93 219.787 18.29C220.527 17.65 220.897 16.76 220.897 15.62C220.897 14.46 220.527 13.56 219.787 12.92C219.047 12.28 217.927 11.96 216.427 11.96H210.307L212.467 9.65V21.56Z" fill="#B92770"/>
</svg>
