<svg width="26" height="20" viewBox="0 0 26 20" fill="none" xmlns="http://www.w3.org/2000/svg">
<path d="M25.5 2.40008C24.5651 2.81761 23.571 3.08746 22.5533 3.2C23.6072 2.56172 24.3994 1.56927 24.7883 0.400289C23.784 0.989603 22.6831 1.39587 21.5367 1.60017C20.8389 0.863533 19.9382 0.35065 18.9485 0.126541C17.9589 -0.0975676 16.9251 -0.0228075 15.978 0.341343C15.0309 0.705493 14.2133 1.34263 13.6289 2.17198C13.0444 3.00133 12.7194 3.98554 12.695 4.99981C12.6783 5.40246 12.7125 5.8056 12.7967 6.19969C10.7612 6.11018 8.76765 5.59184 6.94643 4.6786C5.12522 3.76536 3.51743 2.47781 2.22833 0.900238C1.78008 1.69477 1.53559 2.58793 1.51667 3.49997C1.51487 4.32981 1.71792 5.14726 2.10779 5.87983C2.49766 6.6124 3.06231 7.23745 3.75167 7.69954C2.967 7.61971 2.20668 7.3816 1.51667 6.99961V7.0996C1.52909 8.28527 1.95049 9.43031 2.70966 10.3412C3.46883 11.2521 4.51922 11.8731 5.68333 12.0991C5.25154 12.2145 4.80827 12.2815 4.36167 12.2991C4.01985 12.3108 3.67798 12.2772 3.345 12.1991C3.66752 13.2133 4.30398 14.0988 5.16253 14.7278C6.02108 15.3568 7.05731 15.6968 8.12167 15.6987C6.30397 17.1457 4.04329 17.9225 1.72 17.8985C1.31078 17.915 0.901074 17.8814 0.5 17.7985C2.85502 19.2475 5.56821 20.0094 8.33333 19.9983C10.2436 20.0279 12.1406 19.6774 13.9141 18.9672C15.6876 18.257 17.3022 17.2012 18.6639 15.8614C20.0256 14.5215 21.1072 12.9243 21.8459 11.1626C22.5846 9.40097 22.9656 7.51 22.9667 5.59975V4.89983C23.9766 4.25279 24.8396 3.40123 25.5 2.40008Z" fill="black"/>
</svg>
